<svg xmlns="http://www.w3.org/2000/svg" xml:space="preserve" width="2048" height="2048" style="shape-rendering:geometricPrecision;text-rendering:geometricPrecision;image-rendering:optimizeQuality;fill-rule:evenodd;clip-rule:evenodd"><defs><style>.fil1{fill:none}.fil2{fill:#fff}</style></defs><path style="fill:transparent" d="M0 0h2048v2048H0z"/><g id="Layer_x0020_1"><path class="fil1" d="M0 0h2048v2048H0z"/><path class="fil1" d="M255.999 255.999h1536v1536h-1536z"/><path class="fil1" d="M255.999 255.999h1536v1536h-1536z"/><g id="_253500760"><path id="_253555624" class="fil1" d="M255.999 255.999h1536v1536h-1536z"/><path id="_253555456" class="fil2" d="M1019.13 488.715c-106.093 0-192.251 86.65-192.251 192.839 0 106.093 86.158 192.706 192.251 192.706 106.176 0 192.814-86.614 192.814-192.706 0-106.189-86.638-192.839-192.814-192.839z"/><path id="_253555288" class="fil2" d="M650.475 732.279c-71.749 0-130.416 58.631-130.416 130.369 0 71.617 58.668 130.284 130.416 130.284 71.641 0 130.284-58.667 130.284-130.284 0-71.738-58.643-130.369-130.284-130.369z"/><path id="_253555120" class="fil2" d="M1388.33 732.279c-72.084 0-130.356 58.631-130.356 130.369 0 71.617 58.272 130.284 130.356 130.284 71.761 0 130.416-58.667 130.416-130.284 0-71.738-58.655-130.369-130.416-130.369z"/><path id="_253554952" class="fil2" d="M390.169 835.945c-48.37 0-87.45 39.104-87.45 87.487 0 48.502 39.08 87.582 87.45 87.582 48.383 0 87.462-39.08 87.462-87.582 0-48.383-39.08-87.487-87.462-87.487z"/><path id="_253554784" class="fil2" d="M394.845 1303.51a941.114 941.114 0 0 1-138.846-165.299c20.89-53.764 73.256-92.102 134.17-92.102 14.434 0 27.54 2.715 40.514 6.398-22.397 37.776-35.838 81.531-35.838 128.49v122.513z"/><path id="_253554616" class="fil2" d="M669.524 1484a936.906 936.906 0 0 1-227.169-138.463v-125.359c0-114.894 93.608-208.073 208.598-208.073 20.376 0 39.57 3.778 58.153 9.28-24.216 47.545-39.583 101.059-39.583 157.908V1484z"/><path id="_253554424" class="fil2" d="M1321.38 1515.59c-89.412 28.376-184.622 43.707-283.421 43.707-112.573 0-220.52-19.875-320.502-56.3v-288.874c0-166.254 135.019-301.753 301.668-301.753 166.721 0 302.255 135.5 302.255 301.753v301.467z"/><path id="_253501168" class="fil2" d="M1596.46 1374.58a935.07 935.07 0 0 1-227.18 124.354v-236.928c0-56.849-15.366-184.371-39.557-231.918 18.582-5.5 38.122-9.279 58.606-9.279 114.535 0 208.132 93.179 208.132 208.073v145.7z"/><path id="_253501000" class="fil2" d="M1792 1178.2a943.084 943.084 0 0 1-148.018 158.518v-155.72c0-46.96-13.584-90.715-35.874-128.491 13.01-3.683 26.488-6.398 40.55-6.398 75.145 0 137.316 58.393 143.342 132.091z"/><path id="_253500904" class="fil2" d="M1648.66 835.945c-48.537 0-87.63 39.104-87.63 87.487 0 48.502 39.093 87.582 87.63 87.582 48.36 0 87.438-39.08 87.438-87.582 0-48.383-39.079-87.487-87.438-87.487z"/></g></g></svg>