<svg xmlns="http://www.w3.org/2000/svg" xml:space="preserve" width="2048" height="2048" style="shape-rendering:geometricPrecision;text-rendering:geometricPrecision;image-rendering:optimizeQuality;fill-rule:evenodd;clip-rule:evenodd"><defs><style>.fil2{fill:none}</style></defs><path style="fill:transparent" d="M0 0h2048v2048H0z"/><g id="Layer_x0020_1"><path d="M1046.94 363.151c90.864 0 173.128 36.833 232.677 96.383C1339.167 519.083 1376 601.348 1376 692.21c0 90.862-36.833 173.128-96.383 232.677-59.549 59.55-141.814 96.383-232.677 96.383-90.864 0-173.128-36.833-232.677-96.383-59.55-59.55-96.383-141.815-96.383-232.677 0-90.864 36.833-173.128 96.383-232.677 59.549-59.55 141.814-96.383 232.677-96.383zm65.662 183.358-6.803 13.095-10.495 20.198-22.087-5.542c-8.066-2.022-16.024-3.209-23.825-3.55-7.964-.347-15.953.121-23.917 1.411l-21.779 3.53-8.998-20.214-5.665-12.729-13.085 5.82 5.35 11.988 9.275 20.779-18.068 13.832c-6.459 4.944-12.284 10.418-17.429 16.369a115.991 115.991 0 0 0-13.644 19.522l-10.937 19.668-21.645-5.8-12.27-3.289-3.672 13.715 12.228 3.277 21.636 5.796-.328 22.39c-.116 7.98.642 16.112 2.26 24.328a118.135 118.135 0 0 0 7.171 23.38l8.876 20.916-18.234 13.47-10.632 7.856 8.516 11.504 11.217-8.305 17.838-13.204 17.336 13.881c6.122 4.902 12.818 9.21 20.036 12.89 7.356 3.752 14.788 6.67 22.237 8.715l21.977 6.038-.782 22.598-.517 14.928 14.304.497.567-15.816.79-22.069 21.532-4.988a118.289 118.289 0 0 0 22.039-7.462c6.928-3.131 13.657-7.03 20.136-11.668l18.298-13.103 17.213 14.68 12.496 10.655 9.273-10.862-12.853-10.974-16.906-14.434 9.691-19.951a119.83 119.83 0 0 0 8.055-21.731c1.963-7.439 3.206-15.024 3.678-22.59l1.396-22.334 21.942-4.272 16.44-3.2-2.717-13.985-16.161 3.148-22.051 4.296-9.515-20.53a118.33 118.33 0 0 0-11.81-20.09c-4.716-6.456-9.894-12.28-15.502-17.42l-16.364-14.997 10.163-19.5 7.298-14.005-12.573-6.556zm-48.218-32.31 4.38-8.431h.114c2.611-5.006 6.07-9.294 10.12-12.678 4.196-3.507 9.018-6.18 14.206-7.82a41.68 41.68 0 0 1 16.138-1.79v.01c5.227.465 10.47 1.995 15.432 4.54l.224.114 40.784 21.264.022-.042c10.3 5.349 17.418 14.289 20.633 24.421l-.103.033c3.198 10.099 2.56 21.416-2.63 31.533v.226l-5.149 9.876a167.67 167.67 0 0 1 7.473 9.485 176.13 176.13 0 0 1 6.652 9.776l11.183-2.178c11.256-2.178 22.358.41 31.184 6.37 8.827 5.957 15.403 15.323 17.608 26.697l8.798 45.3v.114c2.14 11.215-.443 22.262-6.375 31.052-5.953 8.817-15.267 15.387-26.566 17.607h-.113l-11.752 2.289a177.854 177.854 0 0 1-5.92 22.408l9.201 7.855c4.117 3.522 7.483 7.854 9.967 12.713 2.526 4.945 4.085 10.187 4.544 15.434v.901c.12 2.104.072 4.32-.155 6.621h-.01c-.255 2.554-.644 4.815-1.163 6.734a41.887 41.887 0 0 1-3.418 8.667c-1.372 2.608-3.107 5.162-5.214 7.607l.018.016-29.961 35.098c-7.54 8.762-17.842 13.668-28.402 14.497h-.114c-10.546.824-21.44-2.411-30.184-9.92l-8.607-7.34a178.087 178.087 0 0 1-10.578 5.21 172.688 172.688 0 0 1-11.278 4.624l-.397 11.097h-.001v.036a41.615 41.615 0 0 1-13.198 28.98c-7.731 7.223-18.235 11.495-29.706 11.106v-.001h-.035l-45.201-1.565v.082h-.001l-.903-.114c-11.6-.405-21.876-5.422-29.131-13.205-7.046-7.561-11.272-17.731-11.122-28.824h-.092v-.002l.112-.902.333-9.626a165.172 165.172 0 0 1-11.358-5.253 168.527 168.527 0 0 1-11.45-6.414l-7.358 5.447-.003-.003-.022.022c-9.262 6.861-20.356 9.338-30.813 7.792-10.508-1.553-20.455-7.152-27.354-16.42l.002-.003-.022-.023-27.478-37.115-.114-.113c-3.256-4.436-5.58-9.395-6.875-14.584v-.113c-1.315-5.278-1.617-10.755-.8-16.145l.113-.114c.851-5.454 2.716-10.565 5.426-15.098 2.794-4.667 6.407-8.736 10.68-11.96l.226-.114 6.393-4.723a170.818 170.818 0 0 1-3.113-13.068 165.742 165.742 0 0 1-2.06-13.283l-7.468-2.002c-11.081-2.977-19.937-10.178-25.275-19.405-5.354-9.255-7.191-20.525-4.226-31.604l11.941-44.586c2.967-11.048 10.225-19.901 19.529-25.27 9.25-5.337 20.495-7.173 31.51-4.224l7.518 2.014a173.724 173.724 0 0 1 16.55-19.167l-3.21-7.188-.113-.227a42.133 42.133 0 0 1-3.467-15.767c-.133-5.419.745-10.795 2.685-15.829l-.02-.008a41.733 41.733 0 0 1 8.64-13.706c3.754-3.97 8.234-7.195 13.22-9.448h.112l42.08-18.717-.02-.042.046-.02.226-.113c10.474-4.617 21.805-4.59 31.673-.807a41.487 41.487 0 0 1 23.106 21.944l.225.452.02.045-.022.008 3.531 7.934a173.03 173.03 0 0 1 13.03.078c4.197.183 8.368.512 12.512.985z" style="fill:#fff"/><path class="fil2" d="M0 0h2048v2048H0z"/><path class="fil2" d="M255.999 255.999h1536v1536h-1536z"/><path d="m1152 1055.87-53.03-.033a40.306 40.306 0 0 1 5.631 4.335c7.74 7.133 12.545 17.098 12.545 28.21l-2.667 10.95-41.833 82.714.018.182.096.286 22.08 291.292-.047.003c.313 3.494-.09 6.691-.972 9.658v.095a27.616 27.616 0 0 1-3.092 6.805l-1.142 1.62-44.28 59.989v.096c-2.616 3.503-5.978 6.274-10.004 8.24l.017.038a27.552 27.552 0 0 1-12.149 2.8h-.07c-4.25 0-8.617-1.113-12.542-3.128h-.095a27.136 27.136 0 0 1-10.027-8.887l-.021.014-41.146-60.057-.096-.19c-1.736-2.592-2.95-5.266-3.696-8.043l.064-.017c-.707-2.631-1.037-5.006-1.037-7.185l.096-1.713 20.577-291.334.093-.476c.072-.785.175-1.558.31-2.32l-41.873-80.197-2.858-11.234c0-11.027 4.792-20.968 12.526-28.121a40.928 40.928 0 0 1 5.872-4.517l-52.313-.032v.126c-105.866 0-203.5 38.155-274.06 100.652-68.097 60.314-110.876 143.47-110.876 236.638v278.817c173.405 48.128 378.41 84.31 578.389 84.31 158.623 0 313.493-22.84 445.61-80.784v-282.344c0-93.231-42.597-176.385-110.516-236.653-70.324-62.402-167.68-100.48-273.482-100.48v-.125z" style="fill:#fff;fill-rule:nonzero"/></g></svg>