<svg xmlns="http://www.w3.org/2000/svg" xml:space="preserve" width="2048" height="2048" style="shape-rendering:geometricPrecision;text-rendering:geometricPrecision;image-rendering:optimizeQuality;fill-rule:evenodd;clip-rule:evenodd"><defs><style>.fil1{fill:none}</style></defs><path style="fill:transparent" d="M0 0h2048v2048H0z"/><g id="Layer_x0020_1"><path class="fil1" d="M0 0h2048v2048H0z"/><path class="fil1" d="M255.999 255.999h1536v1536h-1536z"/><path class="fil1" d="M255.999 255.999h1536v1536h-1536zM487.036 1408H1376"/><path class="fil1" d="M255.999 255.999h1536v1536h-1536z"/><path d="M1510.73 255.999H354.78v1379.3h1155.95v-1379.3zm-499.241 256.727h376.832v72.734h-376.832v-72.734zm0 219.673h376.832v72.734h-376.832v-72.734zm0 219.664h376.832v72.734h-376.832v-72.734zm0 219.673h376.832v72.733h-376.832v-72.733zM480.015 1391.4h908.306v72.733H480.015V1391.4zm1078-979.05v69.552h65.67v1240.29H606.795v-48.273h-69.849v118.078h1156.27V412.347H1558.02zM935.043 803.948c2.48 7.178 4.058 14.523 4.058 22.077 0 70.315-114.074 127.387-254.783 127.387-140.708 0-254.782-57.072-254.782-127.387 0-7.554 1.543-14.9 4.057-22.077 43.26 51.017 137.966 85.766 250.725 85.766 112.75 0 207.464-34.75 250.725-85.766zM684.318 974.647c-112.759 0-207.464-34.759-250.725-85.756-2.515 7.169-4.057 14.513-4.057 22.05 0 70.34 114.073 127.396 254.782 127.396 140.708 0 254.783-57.056 254.783-127.396 0-7.546-1.578-14.881-4.058-22.05-43.26 51.007-137.974 85.756-250.725 85.756zm0 84.925c-112.759 0-207.464-34.75-250.725-85.758-2.515 7.17-4.057 14.514-4.057 22.07 0 70.322 114.073 127.386 254.782 127.386 140.708 0 254.783-57.064 254.783-127.387 0-7.563-1.578-14.9-4.058-22.069-43.26 51.009-137.974 85.758-250.725 85.758zm0 84.925c-112.759 0-207.464-34.741-250.725-85.75-2.515 7.17-4.057 14.506-4.057 22.052 0 70.332 114.073 127.395 254.782 127.395 140.708 0 254.783-57.063 254.783-127.395 0-7.546-1.578-14.882-4.058-22.051-43.26 51.008-137.974 85.749-250.725 85.749zm0 84.933c-112.759 0-207.464-34.75-250.725-85.766-2.515 7.178-4.057 14.522-4.057 22.068 0 70.323 114.073 127.395 254.782 127.395 140.708 0 254.783-57.072 254.783-127.395 0-7.546-1.578-14.89-4.058-22.068-43.26 51.015-137.974 85.766-250.725 85.766zM429.536 741.092c0-70.332 114.073-127.395 254.782-127.395 140.708 0 254.783 57.062 254.783 127.395 0 70.323-114.074 127.395-254.783 127.395-140.708 0-254.782-57.072-254.782-127.395zm300.645 28.29c0 4.225-3.559 7.862-10.702 10.85-7.124 3.032-18.317 4.523-33.46 4.523-32.384 0-51.456-6.995-57.231-21.017l-62.2 6.468c12.56 22.305 45.128 34.54 97.747 36.696v19.123h40.22v-19.21c31.558-1.325 55.686-5.759 72.4-13.235 16.722-7.493 25.091-16.818 25.091-28.115 0-7.292-4.075-13.68-12.146-19.159-8.125-5.434-18.958-9.745-32.56-12.84-13.558-3.084-32.296-6.397-56.178-9.876-21.744-3.182-35.959-5.898-42.559-8.046-6.634-2.164-9.947-5.275-9.947-9.29 0-3.98 3.436-7.388 10.334-10.166 6.827-2.779 15.959-4.19 27.326-4.19 22.629 0 39.299 6.267 50.122 18.755l55.415-9.122c-13.233-18.186-42.348-28.37-87.299-30.535v-14.83h-40.219v14.839c-29.78 1.7-51.594 6.301-65.45 13.812-13.838 7.502-20.807 16.012-20.807 25.416 0 7.134 3.9 13.435 11.648 18.86 7.765 5.399 17.87 9.597 30.316 12.586 12.436 2.98 29.719 6.055 51.822 9.114 24.601 3.48 40.49 6.301 47.615 8.633 7.143 2.226 10.702 5.548 10.702 9.957z" style="fill:#fff"/></g></svg>