<svg xmlns="http://www.w3.org/2000/svg" xml:space="preserve" width="2048" height="2048" style="shape-rendering:geometricPrecision;text-rendering:geometricPrecision;image-rendering:optimizeQuality;fill-rule:evenodd;clip-rule:evenodd"><defs><style>.fil1{fill:none}</style></defs><path style="fill:transparent" d="M0 0h2048v2048H0z"/><g id="Layer_x0020_1"><path class="fil1" d="M0 0h2048v2048H0z"/><path class="fil1" d="M255.999 255.999h1536v1536h-1536z"/><path class="fil1" d="M256.003 256.001h1536v1536h-1536z"/><path class="fil1" d="M256.003 256.001h1536v1536h-1536z"/><path d="M255.999 1041.05c.007-159.075 104.269-288.03 232.879-288.03 97.434 0 180.882 74.014 215.627 179.065h472.616a44.813 44.813 0 0 1 33.072 14.584l64.723 64.708a44.79 44.79 0 0 1 11.7 30.179 44.703 44.703 0 0 1-11.7 30.17l-64.723 63.712a44.796 44.796 0 0 1-33.072 14.607l-48.145-.009a44.853 44.853 0 0 1-31.66-13.117l-32.557-32.557-32.557 32.557a44.842 44.842 0 0 1-31.66 13.117h-56.446a44.78 44.78 0 0 1-31.644-13.117l-32.557-32.557-32.558 32.557a44.745 44.745 0 0 1-31.651 13.11l-111.181.007c-34.752 105.045-118.193 179.058-215.635 179.066-128.602-.008-232.871-128.963-232.871-288.052zm170.358 94.434c34.528 0 62.522-42.285 62.522-94.427 0-52.157-27.985-94.427-62.522-94.419-34.528-.008-62.529 42.269-62.529 94.412.007 52.15 27.992 94.434 62.529 94.434zm1210.63-783.73H913.149c-85.912 0-155.33 69.42-155.33 155v258.54h103.556v-258.54c0-28.513 23.191-51.443 51.775-51.443h723.838c28.507 0 51.782 22.93 51.782 51.444v1034.15c0 28.584-23.275 51.774-51.782 51.774H913.15c-28.584 0-51.775-23.19-51.775-51.774v-258.533H757.819v258.533c0 85.911 69.418 155.329 155.33 155.329h723.838c85.582 0 155.008-69.418 155.008-155.33V506.755c0-85.58-69.426-155-155.008-155z" style="fill:#fff"/></g></svg>