<svg xmlns="http://www.w3.org/2000/svg" xml:space="preserve" width="2048" height="2048" style="shape-rendering:geometricPrecision;text-rendering:geometricPrecision;image-rendering:optimizeQuality;fill-rule:evenodd;clip-rule:evenodd"><defs><style>.fil1{fill:none}.fil2{fill:#fff;fill-rule:nonzero}</style></defs><path style="fill:transparent" d="M0 0h2048v2048H0z"/><g id="Layer_x0020_1"><path class="fil1" d="M0 0h2048v2048H0z"/><path class="fil1" d="M255.999 255.999h1536v1536h-1536z"/><path class="fil1" d="M255.999 255.999h1536v1536h-1536z"/><path class="fil2" d="M1039.92 1145.96c0-86.573 35.209-165.066 92.053-221.91 56.845-56.844 135.34-92.052 221.915-92.052 86.572 0 165.067 35.208 221.912 92.05 56.843 56.846 92.05 135.34 92.05 221.913 0 24.93-2.94 49.23-8.49 72.567-5.637 23.708-14.068 46.538-24.928 68.12l-251.794 519.226-28.751 59.287-28.75-59.287-251.842-519.335c-10.847-21.568-19.265-44.372-24.893-68.05a313.276 313.276 0 0 1-8.482-72.528zm313.968 124.028c34.187 0 65.195-13.915 87.658-36.376 22.465-22.464 36.38-53.47 36.38-87.652 0-34.188-13.913-65.199-36.378-87.663-22.464-22.465-53.473-36.38-87.66-36.38h-.002c-34.187 0-65.197 13.916-87.662 36.38-22.542 22.543-36.505 53.559-36.505 87.661h.125v.002c0 34.18 13.917 65.187 36.382 87.651 22.465 22.462 53.474 36.377 87.662 36.377zM554.928 223.999c48.194 0 91.892 19.6 123.534 51.242 31.642 31.642 51.242 75.34 51.242 123.533 0 13.856-1.64 27.38-4.73 40.386-3.103 13.056-7.775 25.705-13.808 37.74L583.679 739.798l-28.75 59.29-28.751-59.29-127.491-262.923c-6.038-12.013-10.706-24.655-13.81-37.71a174.513 174.513 0 0 1-4.729-40.391c0-48.194 19.6-91.891 51.243-123.533 31.643-31.642 75.343-51.242 123.536-51.242z"/><path class="fil2" d="M658.87 709.412c1.167.457 3.07 1.166 7.408 2.826 64.153 24.546 258.986 99.095 252.416 306.84h-.005c-1.006 31.568-9.301 59.96-17.589 88.321-3.003 10.283-6.01 20.563-8.784 31.863-8.404 34.176-13.281 69.38-12.288 103.91.966 33.619 7.507 66.808 21.839 97.997 5.786 12.598 13.2 24.587 22.01 35.786a188.473 188.473 0 0 0 30.344 30.592c26.597 21.31 57.892 36.345 91.07 46.978 34.231 10.97 70.586 17.283 106.064 20.939.948.1 4.464.374 9.985.856l.19.017-5.5 63.751-.19-.017c-1.47-.127-3.053-.27-10.986-1.106-39.327-4.053-80.01-11.173-119.062-23.688-40.102-12.853-78.349-31.361-111.57-57.98-15.143-12.127-28.781-25.82-40.596-40.841-11.616-14.769-21.637-31.103-29.758-48.788-18.13-39.455-26.39-80.98-27.59-122.746-1.177-40.855 4.401-81.723 14.038-120.91 2.663-10.85 6.1-22.607 9.535-34.363 7.178-24.564 14.366-49.157 15.092-72.447v-.126c5.13-162.232-157.774-224.564-211.415-245.088-1.35-.516-2.243-.855-7.909-3.076l23.252-59.5z"/></g></svg>